<?xml version="1.0" encoding="utf-8"?>
<!-- Generator: Adobe Illustrator 19.1.0, SVG Export Plug-In . SVG Version: 6.00 Build 0)  -->
<svg version="1.1" xmlns="http://www.w3.org/2000/svg" xmlns:xlink="http://www.w3.org/1999/xlink" x="0px" y="0px"
	 viewBox="-72 165.7 465.3 463.3" style="enable-background:new -72 165.7 465.3 463.3;" xml:space="preserve">
<style type="text/css">
	.st0{display:none;}
	.st1{display:inline;}
	.st2{fill:#FFFFFF;}
</style>
<g id="_behance" class="st0">
	<g class="st1">
		<g>
			<path class="st2" d="M160.7,628.8c-64,0-128-0.3-192,0.2c-18.7,0.1-36.7-14-40.4-33.2c-0.5-2.6-0.2-5.3-0.2-8
				c0-76.2,0-152.3,0-228.5c0-51.3,0-102.7,0-154c0-13.7,6.1-24.5,17.2-32.4c7-5,14.7-7.2,23.3-7.2c128.2,0,256.3,0,384.5,0
				c8.4,0,16.1,2.1,22.8,7c10.7,7.9,17.2,18.2,17.2,32c0,128.2-0.1,256.3,0.1,384.5c0,18.3-14.6,36.2-33.6,39.4
				c-2.4,0.4-5,0.2-7.5,0.2C288.3,628.8,224.5,628.8,160.7,628.8L160.7,628.8z M-4.6,499.5c1.1,0.1,1.9,0.2,2.7,0.2
				c18.3,0,36.6,0.2,55,0c18.3-0.3,36.6,1.3,54.8-1c5.9-0.8,11.8-1.9,17.4-3.7c10.8-3.5,19.5-10.2,26.5-19.3c6.9-9,10.9-19,12.1-30
				c0.7-6.7,0.6-13.5-0.7-20.3c-2.9-15-10.7-26.2-24.3-33.2c-1.8-0.9-3.6-1.9-5.8-3c3-2,5.7-3.5,7.9-5.4c3.2-2.8,6.4-5.8,9.1-9.1
				c6.2-7.8,7.3-17.3,7.8-26.7c0.3-5.2-0.7-10.6-1.9-15.7c-2.8-11.7-8.9-21.5-19.2-28c-10.4-6.6-22.1-10.2-34.3-10.4
				c-34.3-0.4-68.6-0.1-102.9-0.1c-1.3,0-2.6,0.1-4.1,0.2C-4.6,362.5-4.6,430.7-4.6,499.5z M327,430.7c0.3-10.4,0.6-20.1-1.1-29.6
				c-1.7-9.8-4.4-19.3-10-27.8c-4.6-7-9.7-13.4-16.5-18.3c-11.5-8.5-24.7-11.8-38.5-13c-9.9-0.9-19.8,0.1-29.5,2.7
				c-16,4.3-28.5,13.3-37.9,26.6c-7.5,10.7-11.1,23.1-12.1,35.8c-0.8,10.9-1.1,21.9,0.6,32.8c1.5,9.6,4.4,18.7,9.3,27.1
				c2.4,3.9,5.3,7.7,8.7,10.8c3.7,3.5,8.2,6.2,12.4,9c11.8,7.8,25.1,10.9,39,11.8c7.6,0.5,15.2-0.4,22.7-1.8
				c9.2-1.8,17.9-4.9,25.6-10.2c5.3-3.7,10.1-7.9,14.3-13c4.1-5,7-10.5,9.6-16.2c0.9-1.8,0.9-4,1.4-6.4c-13.4,0-26.3,0-39.3,0
				c-3.7,6.1-8.3,11.3-15.2,13.9c-2.6,1-5.4,1.5-8.1,2.1c-7.9,1.8-15.6,0.4-22.8-2.6c-11-4.5-17.2-13.2-19.5-24.7
				c-0.6-2.8-0.7-5.7-1.1-9.1C255.3,430.7,290.9,430.7,327,430.7z M212.3,322.4c1.1,0.1,1.7,0.3,2.3,0.3c26.5,0,52.9-0.1,79.4-0.2
				c0.1,0,0.3-0.1,0.4-0.2c0.1-0.1,0.2-0.2,0.7-0.7c-0.2-6.2,0.3-12.8-0.3-19.5c-0.9-0.1-1.6-0.3-2.2-0.3c-26.5,0-52.9,0.1-79.4,0.1
				c-0.1,0-0.3,0.1-0.4,0.2c-0.1,0.1-0.2,0.2-0.5,0.6C212.3,309,212.3,315.5,212.3,322.4z"/>
			<path class="st2" d="M42.1,436.8c0-7.8,0-15.6,0-23.5c0-4.2,0.4-4.6,4.6-4.6c14.3,0,28.6-0.4,42.9,0.1c7.5,0.3,15.1,1.4,21.8,5.6
				c4.2,2.6,7,6.4,8.3,10.8c3.2,10.7,1.7,21.1-5.1,30.1c-2.8,3.8-7.3,5.9-11.7,7.1c-4.9,1.3-10.1,2-15.1,2.1
				c-13.5,0.3-26.9,0.1-40.4,0.1c-0.5,0-1,0-1.5,0c-3-0.2-3.5-0.6-3.7-3.5c-0.1-1,0-2,0-3C42.1,451.1,42.1,444,42.1,436.8z"/>
			<path class="st2" d="M42.3,374.8c-0.1-2-0.2-3.3-0.2-4.6c0-12,0-24,0-36c0-5.4,0.1-5.4,5.7-5.5c2.5,0,5,0,7.5,0c7,0,14,0.1,21,0
				c8-0.1,15.9,0.7,23.7,2.1c6.9,1.2,12.6,4.5,15.2,11.4c3.4,9,2.5,20.4-6.2,27.1c-1.2,0.9-2.4,1.8-3.8,2.3
				c-5.6,2-11.3,3.4-17.5,3.3c-13.3-0.3-26.7-0.1-40-0.1C46.2,374.8,44.5,374.8,42.3,374.8z"/>
			<path class="st2" d="M286.5,404.6c-22.1,0-44,0-66.1,0c0.9-8.6,4.2-15.9,9.6-22.1c4.3-4.9,10.1-7.8,16.5-8.5s12.9-0.9,19.2,1.1
				c10.6,3.5,17.2,10.8,20.3,21.3C286.7,398.9,288,401.5,286.5,404.6z"/>
		</g>
	</g>
</g>
<g id="instagram" class="st0">
	<g class="st1">
		<g>
			<path class="st2" d="M160.6,629.1c-59.5,0-118.9,0-178.4,0c-14.8,0-27.4-5.4-37.8-15.8c-8.5-8.5-13.6-18.9-15-31
				c-0.3-2.7-0.4-5.5-0.4-8.3c0-98.6,0-197.1,0-295.7c0-19.8,0-39.6,0-59.4c0-14.7,5.5-27.3,15.8-37.7c9-9,20-14.1,32.7-15.3
				c1.7-0.2,3.5-0.3,5.2-0.3c118.6,0,237.2,0,355.7,0c14.9,0,27.7,5.3,38.2,15.8c8.9,8.9,14,19.7,15.3,32.2c0.2,1.8,0.3,3.6,0.3,5.4
				c0,118.8,0,237.6,0,356.5c0,13.1-4.3,24.6-12.7,34.5c-8.5,10.1-19.4,16.1-32.4,18.3c-2.8,0.5-5.8,0.6-8.6,0.6
				c-33.3,0-66.6,0-99.9,0C212.6,629.1,186.6,629.1,160.6,629.1z M298.8,362c10,42.5,3.5,81.9-21.6,117.5
				c-25.1,35.6-59.9,55.5-103.3,60c-26.1,2.7-51.1-1.9-74.7-13.3C75,514.6,55.4,497.7,41,475.1c-22.4-35-28.2-72.8-18.5-113.1
				c-13.4,0-26.6,0-40,0c0,1,0,1.8,0,2.6c0,63.8,0,127.6,0,191.4c0,0.6,0,1.2,0,1.8c-0.1,7.9,5.4,15.7,14.7,17.4
				c1.6,0.3,3.2,0.2,4.9,0.2c105.7,0,211.4,0,317,0c0.8,0,1.7,0.1,2.5,0c1.4-0.2,2.9-0.3,4.3-0.7c7.7-2.2,12.8-9,12.8-17.1
				c0-13.2,0-26.4,0-39.6c0-51.3,0-102.5,0-153.8c0-0.8,0-1.5,0-2.4C325.2,362,312,362,298.8,362z M249.6,397.5
				c0-49-39.6-89.1-89.1-89c-50,0-89,40.7-89,88.9c0,49.3,40.2,89.1,89,89.1C208.8,486.6,249.6,447.5,249.6,397.5z M338.8,264
				c0-9,0-18,0-27c-0.1-9.7-7.9-17.6-17.6-17.6c-17.9-0.1-35.8-0.1-53.7,0c-9.7,0-17.6,7.9-17.6,17.6c-0.1,17.9-0.1,35.8,0,53.7
				c0,9.7,7.9,17.6,17.6,17.6c17.9,0,35.8,0,53.7,0c1.5,0,3-0.2,4.5-0.6c7.8-2.1,13.1-9,13.2-17C338.8,281.8,338.8,272.9,338.8,264z
				"/>
		</g>
	</g>
</g>
<g id="Twitter">
	<g>
		<g>
			<path class="st2" d="M161.5,165.9c68.3,0,136.6-0.1,204.9,0.1c5,0,10.3,0.9,14.9,2.8c7.5,3.1,10.9,9.8,11.8,17.6
				c0.3,2.3,0.1,4.6,0.1,6.9c0,136,0.1,272,0,408c0,5-0.6,10.4-2.4,15c-3.2,8.1-10.2,12-18.8,12.8c-2,0.2-4,0.1-6,0.1
				c-136.9,0-273.7,0-410.6-0.1c-5,0-10.4-0.8-15-2.6c-7.8-3.2-11.5-10-12.3-18.2c-0.2-2.5-0.1-5.1-0.1-7.7
				c0-135.4,0.1-270.9,0.1-406.3c0-2.6-0.1-5.2,0.1-7.7c0.9-11.1,9.6-19.7,20.7-20.5c2.9-0.2,5.7-0.1,8.6-0.1
				C25.5,165.9,93.5,165.9,161.5,165.9z M10.8,498.7C10.3,498.4,9.9,498.2,10.8,498.7C9.8,498.4,10.3,498.5,10.8,498.7
				c1.5,1.2,2.8,2.8,4.5,3.7c37.4,20.4,77.5,27.6,119.5,21.2c46.7-7.1,85.3-28.9,114.5-66.3c25.3-32.5,39.5-69.1,40.5-110.5
				c0.1-4.5,0-9.1,0-12.9c11-10.3,22.2-19.1,30.6-32.2c-11.8,3-21.9,5.5-32,8c1.1-2.9,2.8-4.2,4.5-5.7c8.6-8,17-16.2,19.3-28.5
				l0.4-0.3l-0.3,0.4c-4.5,1.9-8.8,4.1-13.4,5.8c-8.3,3-16.6,5.7-24.5,8.4c-3.8-2.9-6.5-4.9-9.3-7c-33.4-25.5-79.9-14.5-98.3,23.3
				c-5.6,11.4-6.8,23.5-6,35.9c0.1,2.1,0,4.2,0,6.8c-54.3-3.6-97.7-26.8-133.9-67.4c-15,34.4-7.8,61.9,19.2,85.3
				c-0.4,0.5-0.8,1-1.2,1.5c-8.7-2.2-17.3-4.4-26.6-6.8c2.5,31.8,19.2,52.1,49.6,61.9c-0.2,0.6-0.4,1.3-0.5,1.9
				c-8.2,0.6-16.4,1.2-24.6,1.8c6.4,22.5,21.4,33.8,58.4,44.5c-0.6,0.9-1.9,1-2.8,1.7c-13,9.1-27,16.1-42.4,20.3
				C41.1,497.6,26,498.9,10.8,498.7z"/>
		</g>
	</g>
</g>
</svg>
