<?xml version="1.0" encoding="utf-8"?>
<!-- Generator: Adobe Illustrator 19.1.0, SVG Export Plug-In . SVG Version: 6.00 Build 0)  -->
<svg version="1.1" id="Layer_1" xmlns="http://www.w3.org/2000/svg" xmlns:xlink="http://www.w3.org/1999/xlink" x="0px" y="0px"
	 viewBox="-70.6 231.1 464.2 326.4" style="enable-background:new -70.6 231.1 464.2 326.4;" xml:space="preserve">
<style type="text/css">
	.st0{display:none;}
	.st1{display:inline;}
	.st2{fill:#FFFFFF;}
</style>
<g id="_behance" class="st0">
	<g class="st1">
		<g>
			<path class="st2" d="M88.7,794.5c-64,0-128-0.3-192,0.2c-18.7,0.1-36.7-14-40.4-33.2c-0.5-2.6-0.2-5.3-0.2-8
				c0-76.2,0-152.3,0-228.5c0-51.3,0-102.7,0-154c0-13.7,6.1-24.5,17.2-32.4c7-5,14.7-7.2,23.3-7.2c128.2,0,256.3,0,384.5,0
				c8.4,0,16.1,2.1,22.8,7c10.7,7.9,17.2,18.2,17.2,32c0,128.2-0.1,256.3,0.1,384.5c0,18.3-14.6,36.2-33.6,39.4
				c-2.4,0.4-5,0.2-7.5,0.2C216.3,794.5,152.5,794.5,88.7,794.5L88.7,794.5z M-76.6,665.2c1.1,0.1,1.9,0.2,2.7,0.2
				c18.3,0,36.6,0.2,55,0c18.3-0.3,36.6,1.3,54.8-1c5.9-0.8,11.8-1.9,17.4-3.7c10.8-3.5,19.5-10.2,26.5-19.3c6.9-9,10.9-19,12.1-30
				c0.7-6.7,0.6-13.5-0.7-20.3c-2.9-15-10.7-26.2-24.3-33.2c-1.8-0.9-3.6-1.9-5.8-3c3-2,5.7-3.5,7.9-5.4c3.2-2.8,6.4-5.8,9.1-9.1
				c6.2-7.8,7.3-17.3,7.8-26.7c0.3-5.2-0.7-10.6-1.9-15.7c-2.8-11.7-8.9-21.5-19.2-28c-10.4-6.6-22.1-10.2-34.3-10.4
				c-34.3-0.4-68.6-0.1-102.9-0.1c-1.3,0-2.6,0.1-4.1,0.2C-76.6,528.2-76.6,596.4-76.6,665.2z M255,596.4
				c0.3-10.4,0.6-20.1-1.1-29.6c-1.7-9.8-4.4-19.3-10-27.8c-4.6-7-9.7-13.4-16.5-18.3c-11.5-8.5-24.7-11.8-38.5-13
				c-9.9-0.9-19.8,0.1-29.5,2.7c-16,4.3-28.5,13.3-37.9,26.6c-7.5,10.7-11.1,23.1-12.1,35.8c-0.8,10.9-1.1,21.9,0.6,32.8
				c1.5,9.6,4.4,18.7,9.3,27.1c2.4,3.9,5.3,7.7,8.7,10.8c3.7,3.5,8.2,6.2,12.4,9c11.8,7.8,25.1,10.9,39,11.8
				c7.6,0.5,15.2-0.4,22.7-1.8c9.2-1.8,17.9-4.9,25.6-10.2c5.3-3.7,10.1-7.9,14.3-13c4.1-5,7-10.5,9.6-16.2c0.9-1.8,0.9-4,1.4-6.4
				c-13.4,0-26.3,0-39.3,0c-3.7,6.1-8.3,11.3-15.2,13.9c-2.6,1-5.4,1.5-8.1,2.1c-7.9,1.8-15.6,0.4-22.8-2.6
				c-11-4.5-17.2-13.2-19.5-24.7c-0.6-2.8-0.7-5.7-1.1-9.1C183.3,596.4,218.9,596.4,255,596.4z M140.3,488.1
				c1.1,0.1,1.7,0.3,2.3,0.3c26.5,0,52.9-0.1,79.4-0.2c0.1,0,0.3-0.1,0.4-0.2s0.2-0.2,0.7-0.7c-0.2-6.2,0.3-12.8-0.3-19.5
				c-0.9-0.1-1.6-0.3-2.2-0.3c-26.5,0-52.9,0.1-79.4,0.1c-0.1,0-0.3,0.1-0.4,0.2c-0.1,0.1-0.2,0.2-0.5,0.6
				C140.3,474.7,140.3,481.2,140.3,488.1z"/>
			<path class="st2" d="M-29.9,602.5c0-7.8,0-15.6,0-23.5c0-4.2,0.4-4.6,4.6-4.6c14.3,0,28.6-0.4,42.9,0.1
				c7.5,0.3,15.1,1.4,21.8,5.6c4.2,2.6,7,6.4,8.3,10.8c3.2,10.7,1.7,21.1-5.1,30.1c-2.8,3.8-7.3,5.9-11.7,7.1
				c-4.9,1.3-10.1,2-15.1,2.1c-13.5,0.3-26.9,0.1-40.4,0.1c-0.5,0-1,0-1.5,0c-3-0.2-3.5-0.6-3.7-3.5c-0.1-1,0-2,0-3
				C-29.9,616.8-29.9,609.7-29.9,602.5z"/>
			<path class="st2" d="M-29.7,540.5c-0.1-2-0.2-3.3-0.2-4.6c0-12,0-24,0-36c0-5.4,0.1-5.4,5.7-5.5c2.5,0,5,0,7.5,0c7,0,14,0.1,21,0
				c8-0.1,15.9,0.7,23.7,2.1c6.9,1.2,12.6,4.5,15.2,11.4c3.4,9,2.5,20.4-6.2,27.1c-1.2,0.9-2.4,1.8-3.8,2.3
				c-5.6,2-11.3,3.4-17.5,3.3c-13.3-0.3-26.7-0.1-40-0.1C-25.8,540.5-27.5,540.5-29.7,540.5z"/>
			<path class="st2" d="M214.5,570.3c-22.1,0-44,0-66.1,0c0.9-8.6,4.2-15.9,9.6-22.1c4.3-4.9,10.1-7.8,16.5-8.5s12.9-0.9,19.2,1.1
				c10.6,3.5,17.2,10.8,20.3,21.3C214.7,564.6,216,567.2,214.5,570.3z"/>
		</g>
	</g>
</g>
<g id="instagram" class="st0">
	<g class="st1">
		<g>
			<path class="st2" d="M88.6,794.8c-59.5,0-118.9,0-178.4,0c-14.8,0-27.4-5.4-37.8-15.8c-8.5-8.5-13.6-18.9-15-31
				c-0.3-2.7-0.4-5.5-0.4-8.3c0-98.6,0-197.1,0-295.7c0-19.8,0-39.6,0-59.4c0-14.7,5.5-27.3,15.8-37.7c9-9,20-14.1,32.7-15.3
				c1.7-0.2,3.5-0.3,5.2-0.3c118.6,0,237.2,0,355.7,0c14.9,0,27.7,5.3,38.2,15.8c8.9,8.9,14,19.7,15.3,32.2c0.2,1.8,0.3,3.6,0.3,5.4
				c0,118.8,0,237.6,0,356.5c0,13.1-4.3,24.6-12.7,34.5c-8.5,10.1-19.4,16.1-32.4,18.3c-2.8,0.5-5.8,0.6-8.6,0.6
				c-33.3,0-66.6,0-99.9,0C140.6,794.8,114.6,794.8,88.6,794.8z M226.8,527.7c10,42.5,3.5,81.9-21.6,117.5s-59.9,55.5-103.3,60
				c-26.1,2.7-51.1-1.9-74.7-13.3C3,680.3-16.6,663.4-31,640.8c-22.4-35-28.2-72.8-18.5-113.1c-13.4,0-26.6,0-40,0c0,1,0,1.8,0,2.6
				c0,63.8,0,127.6,0,191.4c0,0.6,0,1.2,0,1.8c-0.1,7.9,5.4,15.7,14.7,17.4c1.6,0.3,3.2,0.2,4.9,0.2c105.7,0,211.4,0,317,0
				c0.8,0,1.7,0.1,2.5,0c1.4-0.2,2.9-0.3,4.3-0.7c7.7-2.2,12.8-9,12.8-17.1c0-13.2,0-26.4,0-39.6c0-51.3,0-102.5,0-153.8
				c0-0.8,0-1.5,0-2.4C253.2,527.7,240,527.7,226.8,527.7z M177.6,563.2c0-49-39.6-89.1-89.1-89c-50,0-89,40.7-89,88.9
				c0,49.3,40.2,89.1,89,89.1C136.8,652.3,177.6,613.2,177.6,563.2z M266.8,429.7c0-9,0-18,0-27c-0.1-9.7-7.9-17.6-17.6-17.6
				c-17.9-0.1-35.8-0.1-53.7,0c-9.7,0-17.6,7.9-17.6,17.6c-0.1,17.9-0.1,35.8,0,53.7c0,9.7,7.9,17.6,17.6,17.6c17.9,0,35.8,0,53.7,0
				c1.5,0,3-0.2,4.5-0.6c7.8-2.1,13.1-9,13.2-17C266.8,447.5,266.8,438.6,266.8,429.7z"/>
		</g>
	</g>
</g>
<path class="st2" d="M393.3,362.7c-0.4-15.8-1.9-31.6-3-47.3c-0.8-12.8-3.2-25.3-7.3-37.5c-6.6-19.9-19.7-33-39.8-39
	c-9.4-2.8-19.1-3.2-28.7-3.7c-20.3-1.1-40.5-1.9-60.8-2.7c-13-0.5-26-0.7-39-0.9c-13-0.2-26-0.4-39.1-0.4c-14.3,0-28.6,0-42.9,0.2
	c-16.4,0.2-32.9,0.5-49.3,0.9c-19.4,0.5-38.9,1.1-58.3,2c-11.7,0.5-23.5,1.2-35.1,2.7c-25,3.2-42,16.7-50.2,40.9
	c-4.2,12.4-6.5,25-7.3,38c-1,14.9-2.2,29.9-2.9,44.8c-0.5,11.1-0.1,22.3-0.1,33.4c0,0,0,0-0.1,0c0,10.8-0.4,21.7,0.1,32.5
	c0.7,16.2,1.9,32.3,3.1,48.5c0.9,12.7,3.5,25.1,7.7,37.2c6.6,19.1,19.6,31.4,39,36.5c8.5,2.2,17.2,3.6,25.9,4.3
	c18.5,1.3,37,2,55.5,2.7c12,0.5,24.1,0.7,36.1,0.9c20.1,0.4,40.1,0.8,60.2,0.9c20.1,0,40.3-0.3,60.4-0.6c10.1-0.1,20.3-0.3,30.4-0.7
	c21.2-0.8,42.4-1.6,63.5-2.7c9-0.5,18-1.1,26.8-2.8c17.8-3.5,31.7-12.9,40.2-29.3c5.6-10.8,8.8-22.4,10.4-34.4
	c2.8-21.6,4.3-43.4,4.6-65.2C393.6,402.1,393.8,382.4,393.3,362.7z M113.6,454.5c0-43.6,0-86.8,0-130.4
	c41.8,21.8,83.3,43.5,125.3,65.4C197,411.3,155.5,432.8,113.6,454.5z"/>
</svg>
